<?xml version="1.0" encoding="UTF-8" standalone="no"?>
<!-- Created with Inkscape (http://www.inkscape.org/) -->

<svg
   xmlns:dc="http://purl.org/dc/elements/1.1/"
   xmlns:cc="http://creativecommons.org/ns#"
   xmlns:rdf="http://www.w3.org/1999/02/22-rdf-syntax-ns#"
   xmlns:svg="http://www.w3.org/2000/svg"
   xmlns="http://www.w3.org/2000/svg"
   xmlns:xlink="http://www.w3.org/1999/xlink"
   version="1.1"
   width="453.54001"
   height="99.209999"
   viewBox="0 0 453.54 99.21"
   id="Ebene_1"
   xml:space="preserve"><metadata
     id="metadata19"><rdf:RDF><cc:Work
         rdf:about=""><dc:format>image/svg+xml</dc:format><dc:type
           rdf:resource="http://purl.org/dc/dcmitype/StillImage" /><dc:title></dc:title></cc:Work></rdf:RDF></metadata><defs
     id="defs17"><defs
       id="defs5"><rect
         width="443.353"
         height="65.209999"
         x="6.1880002"
         y="17"
         id="SVGID_1_" /></defs><clipPath
       id="SVGID_2_"><use
         id="use9"
         style="overflow:visible"
         x="0"
         y="0"
         width="453.54001"
         height="99.209999"
         xlink:href="#SVGID_1_" /></clipPath></defs><path
     d="m 412.158,81.11 h 8.795 V 58.19 c 0,-6.682 4.398,-10.318 10.065,-10.318 5.835,0 9.727,3.044 9.727,10.487 V 81.11 h 8.795 V 56.415 c 0,-10.15 -7.274,-17.339 -15.9,-17.339 -5.582,0 -10.064,2.453 -12.517,6.259 h -0.17 v -5.159 h -8.795 V 81.11 z M 367.671,56.415 c 1.438,-6.09 6.005,-9.558 11.587,-9.558 5.582,0 10.234,3.299 12.095,9.558 h -23.682 z m 24.358,11.671 c -3.045,4.06 -7.104,6.343 -11.841,6.343 -6.175,0 -12.01,-4.482 -12.518,-10.741 h 34 v -1.606 c 0,-15.986 -12.687,-23.005 -21.229,-23.005 -14.294,0 -22.582,10.742 -22.582,21.567 0,10.827 8.288,21.567 22.582,21.567 7.357,-0.085 14.124,-3.806 19.029,-9.98 l -7.441,-4.145 z M 330.628,48.464 h 4.99 v 17.761 c 0,8.542 4.229,11.671 13.277,15.984 l 3.891,-6.936 -4.736,-2.706 c -2.622,-1.522 -3.637,-3.552 -3.637,-7.949 V 48.464 h 7.021 v -8.289 h -7.021 V 26.897 l -8.795,2.453 v 10.826 h -4.99 v 8.288 z M 303.479,81.11 h 8.797 V 54.046 c 0,-3.721 2.874,-6.173 6.089,-6.173 0.846,0 2.453,0.507 3.299,1.184 l 3.129,-8.712 c -1.184,-0.761 -2.876,-1.269 -4.82,-1.269 -3.552,0 -6.598,2.199 -8.034,5.583 h -0.17 V 40.177 H 303.48 V 81.11 z M 258.655,60.643 c 0,-7.358 5.582,-13.277 13.279,-13.277 7.694,0 13.277,5.919 13.277,13.277 0,7.358 -5.583,13.279 -13.277,13.279 -7.697,0 -13.279,-5.921 -13.279,-13.279 m -9.303,0 c 0,10.827 8.289,21.567 22.583,21.567 14.293,0 22.58,-10.74 22.58,-21.567 0,-10.825 -8.287,-21.567 -22.58,-21.567 -14.294,0 -22.583,10.741 -22.583,21.567 m -38.905,21.567 9.557,-22.159 h 0.169 l 9.558,22.159 15.815,-42.034 h -9.473 L 228.8,62.335 h -0.169 l -8.542,-19.621 -8.542,19.621 h -0.169 l -7.274,-22.159 h -9.472 L 210.447,82.21 z M 166.806,48.464 h 4.991 v 17.761 c 0,8.542 4.228,11.671 13.278,15.984 l 3.891,-6.936 -4.737,-2.706 c -2.621,-1.522 -3.636,-3.552 -3.636,-7.949 V 48.464 h 7.02 v -8.289 h -7.02 V 26.897 l -8.795,2.453 v 10.826 h -4.991 v 8.288 z m -45.67,32.646 h 8.797 V 58.19 c 0,-6.682 4.398,-10.318 10.064,-10.318 5.836,0 9.726,3.044 9.726,10.487 V 81.11 h 8.796 V 56.415 c 0,-10.15 -7.273,-17.339 -15.9,-17.339 -5.583,0 -10.065,2.453 -12.517,6.259 h -0.169 v -5.159 h -8.797 V 81.11 z M 74.789,60.643 c 0,-7.358 5.92,-13.277 13.025,-13.277 6.935,0 12.855,5.919 12.855,13.277 0,7.358 -5.921,13.279 -12.855,13.279 -7.105,0 -13.025,-5.921 -13.025,-13.279 m 25.542,20.467 h 8.795 V 40.176 h -8.795 v 4.99 h -0.169 c -2.283,-3.467 -6.936,-6.09 -13.024,-6.09 -13.279,0 -21.652,11.503 -21.652,21.567 0,10.572 7.781,21.567 21.229,21.567 5.583,0 10.657,-2.368 13.448,-6.089 h 0.169 v 4.989 z"
     clip-path="url(#SVGID_2_)"
     id="path11"
     style="fill:#ffffff" /><path
     d="M 9.137,27.58 H 34.163 L 19.209,47.112 c 2.576,-0.968 4.757,-1.559 7.791,-1.886 10.846,-1.168 16.625,6.361 16.625,13.585 0,6.714 -5.298,13.529 -13.539,13.529 -5.289,0 -10.979,-3.255 -14.743,-6.815 L 6.188,72.85 c 6.206,6.715 14.141,9.36 22.788,9.36 17.091,0 26.451,-12.208 26.451,-23.806 0,-11.394 -8.749,-18.922 -17.702,-19.329 L 55.426,17 H 9.137 v 10.58 z"
     clip-path="url(#SVGID_2_)"
     id="path13"
     style="fill:#86bc25" /></svg>