<svg xmlns="http://www.w3.org/2000/svg" viewBox="0 0 334.92068 209.44563" height="209.446" width="334.921"><path d="M128.026 145.39c-.12-.18-.18-.36-.36-.36-.36 0-3.48 2.46-7.38 2.46-5.82 0-6.9-5.76-6.9-11.22 0-6.84 1.74-11.22 7.62-11.22 3.54 0 6.12 3.06 6.36 3.06.18 0 .24-.18.36-.36l1.38-2.52c.06-.18.18-.3.18-.48 0-.9-4.62-3.72-8.64-3.72-7.38 0-12.18 6.12-12.18 16.14 0 8.76 4.14 14.34 11.28 14.34 4.44 0 9.48-2.46 9.48-3.12 0-.18-.12-.3-.18-.48l-1.02-2.52zM143.873 147.37c-.06-.18-.06-.36-.42-.36-.42 0-1.56.78-3.12.78-1.74 0-2.28-1.44-2.4-2.1-.12-.72-.18-3.78-.18-5.64v-32.04c0-.3 0-.78-.42-.78-.42.06-.24 0-.72.12l-3 .72c-.24.06-.42.3-.42.72v31.14c0 2.1 0 6.72.84 8.7.72 1.68 2.7 2.88 5.64 2.88 2.22 0 5.1-.84 5.1-1.5 0-.12-.06-.3-.12-.42l-.78-2.22z" style="line-height:125%;-inkscape-font-specification:'ITC Officina Sans Std'" font-weight="400" font-size="60" font-family="ITC Officina Sans Std" letter-spacing="-2.02" word-spacing="0" fill="#221f1f"/><path d="M169.198 136.09c0-8.46-3.48-15.06-11.7-15.06-8.7 0-12.18 7.08-12.18 15.36 0 8.58 3.48 15.12 11.58 15.12 8.76 0 12.3-7.02 12.3-15.42zm-11.88 11.7c-5.52 0-7.08-5.1-7.08-11.94 0-5.94 1.62-11.1 7.02-11.1 5.4 0 7.02 5.4 7.02 11.28 0 6.9-1.62 11.76-6.96 11.76z" style="line-height:125%;-inkscape-font-specification:'ITC Officina Sans Std'" font-weight="400" font-size="60" font-family="ITC Officina Sans Std" letter-spacing="-2.02" word-spacing="0" fill="#fdba0b"/><path d="M190.938 144.43c-1.14 1.08-4.98 3.06-6.84 3.06-3.9 0-4.92-2.28-4.92-4.86v-20.82c0-.3 0-.78-.42-.78-.42.06-.24 0-.72.12l-3 .72c-.24.06-.42.3-.42.72v19.92c0 4.32.66 9 8.76 9 3.42 0 6.66-2.16 8.34-3.54.66 1.38 1.32 3.54 2.22 3.54.12 0 .24-.06.48-.18l2.34-1.44c.24-.12.54-.24.54-.48 0-.36-.78-1.56-1.14-2.28-.6-1.26-.66-2.58-.66-3.96v-21.36c0-.3 0-.78-.42-.78-.42.06-.24 0-.72.12l-3 .72c-.24.06-.42.3-.42.72v21.84zM217.624 143.95c-1.44.9-4.08 3.54-7.2 3.54-4.86 0-5.28-5.7-5.28-10.74 0-5.82.48-11.7 5.64-11.7 3 0 4.92.96 6.84 1.98v16.92zm4.56-35.94c0-.3 0-.78-.48-.78-.42.06-.24 0-.72.12l-2.94.72c-.24.06-.42.3-.42.72v14.28c-1.62-1.02-3.66-2.04-7.38-2.04-6.96 0-10.02 7.2-10.02 15.84 0 7.44 2.94 14.64 9.36 14.64 4.44 0 7.38-2.52 8.82-3.54.24.96 1.32 3.54 2.16 3.54.12 0 .24-.06.48-.18l2.34-1.44c.24-.12.54-.24.54-.48 0-.36-.78-1.5-1.08-2.22-.66-1.5-.66-3.3-.66-6v-33.18zM235.824 125.59h7.68c.36 0 .66-.24.78-.54l.78-2.34c0-.18.06-.3.06-.42 0-.36-.3-.42-.66-.42h-8.64v-4.62c0-3.48.24-6 3.6-6 2.52 0 4.2 1.26 5.22 1.26.18 0 .3-.18.42-.36l.84-1.98c.12-.42.3-.66.3-.84 0-.9-3.84-2.1-6.6-2.1-7.44 0-8.34 5.46-8.34 9.96v4.68h-4.2c-.42 0-.42.3-.42.72v2.28c0 .3 0 .72.42.72h4.2v24.36c0 .48.24.72.72.72h3.12c.48 0 .72-.24.72-.72v-24.36zM251.651 130.15c1.44-1.56 3.54-4.68 5.64-4.68 1.14 0 1.68.54 1.98.54.24 0 .3-.3.36-.42l1.32-3.06c.06-.18.18-.36.18-.48 0-.54-1.56-1.02-2.94-1.02-3.48 0-5.64 3.36-7.2 5.04-.24-1.32-1.26-5.04-2.34-5.04-.12 0-.36.12-.6.3l-2.22 1.38c-.12.06-.36.24-.42.6 0 .18.18.66.66 1.5.84 1.5 1.02 3.48 1.02 4.56v20.58c0 .48.24.72.72.72h3.12c.48 0 .72-.24.72-.72v-19.8zM284.723 136.09c0-8.46-3.48-15.06-11.7-15.06-8.7 0-12.18 7.08-12.18 15.36 0 8.58 3.48 15.12 11.58 15.12 8.76 0 12.3-7.02 12.3-15.42zm-11.88 11.7c-5.52 0-7.08-5.1-7.08-11.94 0-5.94 1.62-11.1 7.02-11.1 5.4 0 7.02 5.4 7.02 11.28 0 6.9-1.62 11.76-6.96 11.76zM311.923 130.03c0-4.32-.48-9-7.14-9-4.56 0-7.68 2.52-9.66 4.08-.06-.48-.78-4.08-1.86-4.08-.18 0-.36.18-.48.24l-2.7 1.5c-.24.18-.3.3-.3.42 0 .3.48.72.96 2.52.24.9.24 1.56.24 3.54v20.7c0 .48.24.72.72.72h3.12c.48 0 .72-.24.72-.72v-21.24c1.5-1.32 4.02-3.66 7.92-3.66 3.24 0 3.9 2.28 3.9 4.86v20.04c0 .48.24.72.72.72h3.12c.48 0 .72-.24.72-.72v-19.92zM334.14 146.23c0-.18-.18-.36-.42-.36-.54 0-2.94 1.62-5.76 1.62-3.6 0-3.6-2.46-3.6-4.86v-17.04h7.92c.36 0 .66-.24.78-.54l.78-2.34c0-.18.06-.3.06-.42 0-.36-.3-.42-.66-.42h-8.88v-9.24c0-.36 0-.66-.3-.66-.12 0-.24.06-.42.06l-3.18.9c-.42.12-.66.36-.66.72v8.22h-4.5c-.42 0-.42.3-.42.72v2.28c0 .3 0 .72.42.72h4.5v17.04c0 2.22 0 4.92 1.74 6.78.9 1.14 3.06 2.1 5.64 2.1 3.24 0 7.74-1.68 7.74-2.46 0-.18-.06-.36-.12-.6l-.66-2.22z" style="line-height:125%;-inkscape-font-specification:'ITC Officina Sans Std'" font-weight="400" font-size="60" font-family="ITC Officina Sans Std" letter-spacing="-2.02" word-spacing="0" fill="#221f1f"/><g fill="#221f1f" fill-rule="evenodd"><path d="M226.128 72.974v-4.526c0-.685.52-1.145 1.145-1.145h20.264c.65 0 1.171.468 1.171 1.145v3.876c-.009.65-.555 1.5-1.526 2.844L236.68 90.161c3.902-.096 8.02.485 11.559 2.48.798.45 1.014 1.11 1.075 1.76v4.83c0 .659-.728 1.43-1.491 1.032-6.235-3.27-14.516-3.625-21.41.034-.702.382-1.44-.381-1.44-1.04V94.67c0-.737.01-1.995.747-3.113l12.165-17.447H227.3c-.65 0-1.17-.46-1.17-1.136M152.206 101.216h-6.165c-.59-.043-1.058-.485-1.101-1.049V68.526c0-.633.529-1.136 1.188-1.136h5.749a1.161 1.161 0 0 1 1.118 1.058v4.136h.113c1.5-3.997 4.318-5.862 8.116-5.862 3.859 0 6.27 1.865 8.004 5.862 1.491-3.997 4.882-5.862 8.515-5.862 2.584 0 5.41 1.067 7.136 3.46 1.951 2.662 1.552 6.53 1.552 9.92l-.008 19.97c0 .633-.53 1.144-1.188 1.144h-6.157c-.616-.043-1.11-.537-1.11-1.144v-16.77c0-1.336.122-4.665-.173-5.931-.46-2.125-1.838-2.723-3.625-2.723-1.491 0-3.052.997-3.685 2.592-.633 1.596-.572 4.267-.572 6.062v16.77c0 .633-.53 1.144-1.188 1.144h-6.157c-.624-.043-1.11-.537-1.11-1.144l-.008-16.77c0-3.53.58-8.724-3.798-8.724-4.431 0-4.258 5.064-4.258 8.724v16.77c0 .633-.529 1.144-1.188 1.144M266.154 66.722c9.149 0 14.1 7.856 14.1 17.846 0 9.65-5.472 17.307-14.1 17.307-8.983 0-13.873-7.856-13.873-17.646 0-9.85 4.95-17.507 13.873-17.507m.053 6.46c-4.544 0-4.83 6.192-4.83 10.05 0 3.868-.061 12.123 4.777 12.123 4.778 0 5.004-6.66 5.004-10.718 0-2.67-.113-5.862-.92-8.394-.693-2.202-2.072-3.06-4.031-3.06M292.116 101.216h-6.14c-.615-.043-1.109-.537-1.109-1.144l-.009-31.65c.052-.581.564-1.032 1.188-1.032h5.715c.537.026.98.39 1.1.884v4.839h.114c1.725-4.327 4.144-6.39 8.402-6.39 2.766 0 5.463.996 7.197 3.728 1.613 2.532 1.613 6.79 1.613 9.85v19.918c-.07.555-.581.997-1.188.997h-6.183c-.563-.043-1.031-.46-1.092-.997V83.033c0-3.46.399-8.524-3.859-8.524-1.5 0-2.879 1.006-3.564 2.532-.867 1.934-.98 3.859-.98 5.992v17.039c-.008.633-.546 1.144-1.205 1.144M209.974 86.102c0 2.402.06 4.405-1.154 6.539-.98 1.734-2.54 2.8-4.266 2.8-2.367 0-3.754-1.803-3.754-4.465 0-5.255 4.708-6.209 9.174-6.209v1.335m6.217 15.028c-.408.364-.997.39-1.457.147-2.046-1.7-2.42-2.489-3.538-4.11-3.381 3.451-5.783 4.483-10.162 4.483-5.194 0-9.227-3.2-9.227-9.608 0-5.003 2.706-8.41 6.573-10.076 3.347-1.474 8.021-1.734 11.594-2.142v-.797c0-1.466.112-3.2-.755-4.466-.745-1.136-2.185-1.604-3.46-1.604-2.35 0-4.44 1.205-4.95 3.702-.105.555-.512 1.102-1.076 1.128l-5.974-.642c-.503-.113-1.067-.52-.92-1.292 1.37-7.25 7.926-9.434 13.788-9.434 3 0 6.92.798 9.286 3.07 3 2.8 2.715 6.537 2.715 10.604v9.608c0 2.888 1.196 4.153 2.323 5.714.39.555.477 1.223-.026 1.64-1.257 1.048-3.494 3-4.725 4.092l-.01-.017M129.15 86.102c0 2.402.06 4.405-1.154 6.539-.98 1.734-2.532 2.8-4.266 2.8-2.367 0-3.746-1.803-3.746-4.465 0-5.255 4.708-6.209 9.165-6.209v1.335m6.218 15.028c-.408.364-.998.39-1.457.147-2.047-1.7-2.41-2.489-3.538-4.11-3.382 3.451-5.775 4.483-10.163 4.483-5.185 0-9.226-3.2-9.226-9.608 0-5.003 2.714-8.41 6.573-10.076 3.347-1.474 8.02-1.734 11.593-2.142v-.797c0-1.466.113-3.2-.745-4.466-.755-1.136-2.194-1.604-3.46-1.604-2.35 0-4.449 1.205-4.96 3.702-.104.555-.512 1.102-1.067 1.128l-5.983-.642c-.503-.113-1.058-.52-.919-1.292 1.379-7.25 7.925-9.434 13.787-9.434 3 0 6.92.798 9.287 3.07 3 2.8 2.714 6.537 2.714 10.604v9.608c0 2.888 1.197 4.153 2.324 5.714.399.555.486 1.223-.017 1.64-1.258 1.048-3.495 3-4.726 4.092l-.017-.017"/></g><path d="M157.235 148.792s1.441 31.765-28.652 33.787c-22.87 1.537-34.936-5.075-51.898-33.517-14.31-23.994-7.581-54.082 2.703-79.739 12.834-32.016 44.523-34.884 69.467-28.381" fill="none" stroke="#fdba0b" stroke-width="3"/><path d="M129.123 182.85c-43.969 37.21-87.296 29.328-110.012.54-26.72-33.862-20.928-65.715 3.244-94.065 19.344-22.688 31.084-27.48 55.952-20.542" fill="none" stroke="#fdba0b" stroke-width="3"/><path d="M76.955 149.332c-13.064-3.153-56.726-13.173-53.79-59.736-8.812-36.88 1.74-62.694 27.841-77.577 46.09-26.28 87.192 1.53 98.12 29.733M78.307 69.053C79.08 49.18 69.51 30.9 51.547 13.91" fill="none" stroke="#fdba0b" stroke-width="3"/><path d="M157.374 42.07a8.429 8 0 0 1-8.429 8 8.429 8 0 0 1-8.428-8 8.429 8 0 0 1 8.428-8 8.429 8 0 0 1 8.429 8zM87.989 69.115a8.429 8 0 0 1-8.429 8 8.429 8 0 0 1-8.428-8 8.429 8 0 0 1 8.428-8 8.429 8 0 0 1 8.429 8zM59.739 12.365a8.429 8 0 0 1-8.429 8 8.429 8 0 0 1-8.428-8 8.429 8 0 0 1 8.428-8 8.429 8 0 0 1 8.429 8zM31.739 89.865a8.429 8 0 0 1-8.429 8 8.429 8 0 0 1-8.428-8 8.429 8 0 0 1 8.428-8 8.429 8 0 0 1 8.429 8zM86.239 148.615a8.429 8 0 0 1-8.429 8 8.429 8 0 0 1-8.428-8 8.429 8 0 0 1 8.428-8 8.429 8 0 0 1 8.429 8zM28.489 182.865a8.429 8 0 0 1-8.429 8 8.429 8 0 0 1-8.428-8 8.429 8 0 0 1 8.428-8 8.429 8 0 0 1 8.429 8zM137.239 182.865a8.429 8 0 0 1-8.429 8 8.429 8 0 0 1-8.428-8 8.429 8 0 0 1 8.428-8 8.429 8 0 0 1 8.429 8z" fill="#fdba0b"/></svg>