<svg xmlns="http://www.w3.org/2000/svg" viewBox="0 0 804.55823 386.12122" height="386.121" width="804.558"><defs><clipPath id="a"><path d="M9866.66 946.77c0-223.516-181.18-404.711-404.71-404.711-223.52 0-404.7 181.195-404.7 404.711 0 223.51 181.18 404.71 404.7 404.71 223.53 0 404.71-181.2 404.71-404.71z"/></clipPath></defs><path d="M50.175 342.68c0-9.186-1.474-15.678-4.411-19.474-2.951-3.794-7.74-5.693-14.388-5.693-6.637 0-11.625 2-14.977 5.994-3.348 3.994-5.074 10.386-5.16 19.173h38.936zm4.051 32.506l4.349-.448.3 8.836c-11.388 1.597-21.125 2.398-29.213 2.398-10.786 0-18.422-3.12-22.925-9.364C2.248 370.37 0 360.656 0 347.473c0-26.263 10.437-39.395 31.299-39.395 10.088 0 17.628 2.822 22.627 8.462 4.986 5.644 7.486 14.507 7.486 26.59l-.597 8.538H11.388c0 8.29 1.489 14.432 4.488 18.426 3 3.994 8.212 5.99 15.648 5.99 7.437 0 15.014-.298 22.702-.898M79.84 384.474h11.237V276.918H79.84v107.556zM120.29 362.754c0 9.188 3.785 13.78 11.373 13.78 6.8 0 13.488-1.147 20.076-3.446l3.449-1.197v-24.716l-22.173 2.096c-4.489.4-7.74 1.7-9.74 3.895-2 2.198-2.986 5.393-2.986 9.588zm46.135-30.56v38.349c.3 3.696 3.188 5.893 8.688 6.59l-.449 8.839c-7.9 0-13.84-1.997-17.825-5.992-8.988 3.995-17.976 5.992-26.964 5.992-6.9 0-12.137-1.947-15.737-5.842-3.588-3.895-5.388-9.486-5.388-16.778 0-7.289 1.851-12.657 5.537-16.103 3.702-3.445 9.488-5.566 17.376-6.367l23.525-2.245v-6.443c0-5.093-1.1-8.736-3.3-10.935-2.2-2.195-5.188-3.296-8.988-3.296-7.988 0-16.274.5-24.862 1.498l-4.651.45-.449-8.539c10.988-2.195 20.725-3.294 29.213-3.294 8.486 0 14.663 1.946 18.5 5.84 3.85 3.896 5.774 9.988 5.774 18.276M212.114 318.114c-10.888 0-16.34 3.796-16.34 11.384 0 3.497 1.252 5.968 3.752 7.414 2.5 1.45 8.188 2.948 17.074 4.494 8.888 1.55 15.176 3.723 18.876 6.518 3.7 2.796 5.548 8.04 5.548 15.728 0 7.69-2.474 13.331-7.422 16.927-4.937 3.595-12.151 5.393-21.64 5.393-6.199 0-13.484-.7-21.873-2.097l-4.5-.75.6-9.737c11.386 1.7 19.974 2.547 25.774 2.547 5.788 0 10.202-.922 13.25-2.77 3.05-1.848 4.575-4.944 4.575-9.288 0-4.345-1.3-7.288-3.9-8.838-2.6-1.548-8.288-3.02-17.077-4.42-8.785-1.397-15.036-3.444-18.722-6.141-3.7-2.696-5.54-7.69-5.54-14.98s2.563-12.682 7.714-16.178c5.137-3.495 11.549-5.242 19.251-5.242 6.086 0 13.725.7 22.91 2.095l4.2.75-.297 9.587c-11.088-1.596-19.827-2.396-26.213-2.396M297.04 319.313h-23.814v35.8c0 8.59.626 14.232 1.874 16.928 1.251 2.697 4.214 4.044 8.914 4.044l13.325-.899.749 9.288c-6.686 1.097-11.788 1.647-15.274 1.647-7.788 0-13.188-1.895-16.176-5.692-3-3.794-4.5-11.033-4.5-21.72v-39.396H251.5v-9.738h10.637v-22.919h11.088v22.92h23.813v9.737M310.824 384.474v-74.899h11.24v74.899h-11.24zm0-91.827v-13.033h11.24v13.033h-11.24M371.639 308.078c3.3 0 8.885.598 16.774 1.796l3.6.45-.45 9.137c-7.987-.898-13.876-1.347-17.676-1.347-8.485 0-14.262 2.021-17.299 6.065-3.051 4.046-4.574 11.536-4.574 22.47 0 10.935 1.426 18.552 4.274 22.845 2.849 4.295 8.763 6.441 17.75 6.441l17.674-1.348.452 9.288c-9.288 1.397-16.225 2.097-20.825 2.097-11.677 0-19.75-2.996-24.188-8.989-4.45-5.99-6.662-16.102-6.662-30.333 0-14.232 2.388-24.216 7.185-29.96 4.789-5.74 12.777-8.612 23.965-8.612M432.462 318.114c-10.885 0-16.336 3.796-16.336 11.384 0 3.497 1.248 5.968 3.748 7.414 2.5 1.45 8.188 2.948 17.077 4.494 8.888 1.55 15.176 3.723 18.876 6.518 3.7 2.796 5.537 8.04 5.537 15.728 0 7.69-2.463 13.331-7.414 16.927-4.937 3.595-12.148 5.393-21.636 5.393-6.2 0-13.488-.7-21.877-2.097l-4.5-.75.603-9.737c11.386 1.7 19.974 2.547 25.774 2.547 5.788 0 10.2-.922 13.248-2.77 3.051-1.848 4.577-4.944 4.577-9.288 0-4.345-1.3-7.288-3.9-8.838-2.6-1.548-8.288-3.02-17.077-4.42-8.785-1.397-15.036-3.444-18.725-6.141-3.7-2.696-5.537-7.69-5.537-14.98s2.563-12.682 7.714-16.178c5.137-3.495 11.549-5.242 19.251-5.242 6.086 0 13.722.7 22.91 2.095l4.2.75-.3 9.587c-11.088-1.596-19.825-2.396-26.213-2.396M525.475 342.68c0-9.186-1.474-15.678-4.41-19.474-2.952-3.794-7.74-5.693-14.389-5.693-6.637 0-11.625 2-14.976 5.994-3.349 3.994-5.063 10.386-5.16 19.173h38.935zm4.052 32.506l4.348-.448.3 8.836c-11.385 1.597-21.125 2.398-29.21 2.398-10.788 0-18.425-3.12-22.928-9.364-4.485-6.238-6.737-15.952-6.737-29.135 0-26.263 10.44-39.395 31.302-39.395 10.085 0 17.625 2.822 22.625 8.462 4.985 5.644 7.485 14.507 7.485 26.59l-.597 8.538h-49.427c0 8.29 1.49 14.432 4.489 18.426 3 3.994 8.211 5.99 15.648 5.99 7.451 0 15.013-.298 22.702-.898M560.997 362.754c0 9.188 3.771 13.78 11.37 13.78 6.8 0 13.486-1.147 20.086-3.446l3.428-1.197v-24.716l-22.17 2.096c-4.486.4-7.743 1.7-9.743 3.895-2 2.198-2.971 5.393-2.971 9.588zm46.14-30.56v38.349c.287 3.696 3.172 5.893 8.686 6.59l-.457 8.839c-7.914 0-13.828-1.997-17.828-5.992-9 3.995-17.97 5.992-26.97 5.992-6.886 0-12.142-1.947-15.728-5.842-3.588-3.895-5.388-9.486-5.388-16.778 0-7.289 1.848-12.657 5.537-16.103 3.694-3.445 9.493-5.566 17.379-6.367l23.513-2.245v-6.443c0-5.093-1.086-8.736-3.285-10.935-2.2-2.195-5.2-3.296-9-3.296-7.971 0-16.257.5-24.856 1.498l-4.651.45-.449-8.539c10.985-2.195 20.728-3.294 29.213-3.294s14.657 1.946 18.485 5.84c3.857 3.896 5.8 9.988 5.8 18.276M629.28 384.474v-74.899h11.085v10.186c8.685-5.993 17.828-9.936 27.427-11.834v11.386c-4.2.8-8.57 2.046-13.113 3.743-4.543 1.7-8.029 3.197-10.4 4.495l-3.743 1.947v54.976H629.28M707.648 308.078c3.286 0 8.885.598 16.77 1.796l3.572.45-.429 9.137c-8-.898-13.885-1.347-17.685-1.347-8.485 0-14.256 2.021-17.313 6.065-3.029 4.046-4.543 11.536-4.543 22.47 0 10.935 1.429 18.552 4.257 22.845 2.857 4.295 8.771 6.441 17.742 6.441l17.685-1.348.457 9.288c-9.285 1.397-16.228 2.097-20.827 2.097-11.686 0-19.742-2.996-24.2-8.989-4.428-5.99-6.656-16.102-6.656-30.333 0-14.232 2.4-24.216 7.2-29.96 4.8-5.74 12.77-8.612 23.97-8.612M756.16 384.474h-11.228V276.918h11.228v36.85c8-3.793 15.685-5.69 23.085-5.69 9.971 0 16.685 2.696 20.142 8.088 3.428 5.393 5.171 14.98 5.171 28.761v39.547h-11.256v-39.247c0-10.386-1-17.5-3.057-21.348-2.029-3.842-6.372-5.765-12.943-5.765a49.83 49.83 0 0 0-18.285 3.445l-2.857 1.048v61.867" fill="#211c1d"/><g transform="matrix(.29 0 0 -.29 -2301.028 386.121)" clip-path="url(#a)"><path d="M9635.25 1124.18h-552.8c-13.91 0-25.2 11.28-25.2 25.2v176.9c0 13.92 11.29 25.2 25.2 25.2h720.42c13.91 0 25.2-11.28 25.2-25.2v-9.29c0-106.49-86.32-192.81-192.82-192.81" fill="#ebbc0d"/><path d="M9829.91 542.059h-770.39c-.13 0-.22.097-.22.218v226.868c0 .117.09.218.22.218h577.92c106.41 0 192.69-86.273 192.69-192.695v-34.391a.213.213 0 0 0-.22-.218" fill="#53c4ac"/><path d="M9589.4 833.117h-572.53v227.303h572.53c62.87 0 113.76-51.01 113.67-113.854-.13-62.687-50.97-113.449-113.67-113.449" fill="#49a8e2"/><path d="M9411.16 1060.42h-373.77V833.117h374.69c8.26 34.258 13.3 72.16 13.3 113.957 0 41.77-5.38 79.446-14.22 113.346" fill="#211c1d"/></g><path d="M344.174 15.61c-19.736 11.5-35.761 28.657-45.835 49.27h85.374c-8.9-19.556-22.588-36.464-39.539-49.27" fill="#d39d16"/><path d="M347.537 217.43c16.677-13.475 29.927-31.028 38.164-51.18H298.34c10.637 21.78 27.913 39.717 49.198 51.18" fill="#359f8e"/></svg>