<svg xmlns="http://www.w3.org/2000/svg" height="33.225" width="113.025" viewBox="0 0 113.025 33.224998"><g transform="translate(-.375 -.4)"><title>fabric-logo</title><path d="M8 25.9l-.3.2c-.7.4-.7 1.4 0 1.9l7.7 5.1c1 .7 2.4.7 3.4 0l7.6-5c.7-.4.7-1.4 0-1.9L26 26l-2.6 1.8-5.2 3.5c-.7.5-1.6.5-2.3 0l-5.2-3.5L8 25.9z"/><path d="M4.3 17.7l-.4.3c-.9.6-.9 2 0 2.6l10.8 7.3c1.4 1 3.3 1 4.8 0l10.7-7.1c.9-.6.9-2 0-2.6l-.5-.3-3.7 2.4-7.3 4.9c-1 .7-2.3.6-3.3 0L4.3 17.7z"/><path d="M32.8 10.1l-13-8.8c-1.7-1.2-4-1.2-5.8 0L1.2 9.9c-1.1.8-1.1 2.4 0 3.2l13 8.7c1.7 1.2 4 1.2 5.7 0l12.9-8.6c1.1-.7 1.1-2.4 0-3.1zm-5 2.6L19 18.6c-1.2.8-2.7.8-3.9 0l-8.9-6c-.8-.5-.8-1.6 0-2.2L15 4.5c1.2-.8 2.7-.8 3.9 0l8.9 6c.8.6.8 1.7 0 2.2zM51.9 11.2h-5.4V9.7c0-2.6 1-3.9 3.1-3.9.8 0 1.4.1 2.3.4V4.8c-.7-.2-1.4-.4-2.3-.4-1.4 0-2.5.4-3.2 1.2-.9.9-1.4 2.2-1.4 4v1.5h-2.2v1.3H45v13.9h1.5V12.4h5.4v-1.2zm6.2.1h-3.8v1.4c.7 0 2.8-.1 3.6-.1 3.2 0 5.1 1.5 5.1 4.5v.7c-1.5-.4-3-.7-5.1-.7-4 0-6.8 1.8-6.8 5v.1c0 3.2 3.1 4.8 6 4.8s4.9-1.4 5.9-2.9v2.5h1.5V17c0-1.9-.5-3.3-1.6-4.3-1.2-1.1-2.7-1.3-4.8-1.4zm4.9 9.5c0 2.8-2.7 4.7-5.9 4.7-2.4 0-4.5-1.3-4.5-3.5v-.1c0-2.1 1.8-3.6 5.1-3.6 2.2 0 3.9.4 5.2.7v1.8zm12.3-9.9c-3.1 0-5 1.8-6.4 3.8v-10h-1.5v21.9h1.5v-3.3c1.3 1.9 3.3 3.7 6.4 3.7 3.7 0 7.5-3 7.5-8v-.1c0-5.1-3.8-8-7.5-8zm5.9 8c0 4.1-2.7 6.5-6.1 6.5-3.2 0-6.3-2.6-6.3-6.6v-.1c0-3.9 3.1-6.6 6.3-6.6 3.3.2 6.1 2.7 6.1 6.8zm5.5-3.3v-4.3h-1.5v15.3h1.5v-6.3c0-5 3.1-7.6 6.7-7.6h.2V11c-3.1-.1-5.7 1.8-6.9 4.6zm8.5 10.9h1.5V10.9h-1.5v15.6zm17.2-3.6c-1.3 1.4-3 2.5-5.2 2.5-3.5 0-6.4-2.9-6.4-6.6v-.1c0-3.7 2.7-6.6 6.2-6.6 2.3 0 3.8 1.2 5.2 2.5l1.1-1.1c-1.5-1.5-3.3-2.8-6.2-2.8-4.4 0-7.9 3.7-7.9 8v.1c0 4.3 3.4 7.9 7.9 7.9 2.8 0 4.7-1.3 6.3-3l-1-.8z"/></g></svg>