<svg xmlns="http://www.w3.org/2000/svg" viewBox="0 0 426.28821 394.50958" height="394.51" width="426.288"><path d="M283.877 223.754c1.955-16.287 1.37-18.676 13.5-16.038l3.08.271c9.329.424 21.531-1.5 28.7-4.83 15.433-7.161 24.584-19.117 9.367-15.976-34.711 7.161-37.097-4.592-37.097-4.592C338.079 128.206 353.4 59.17 340.176 42.273c-36.073-46.092-98.513-24.296-99.558-23.73l-.332.061c-6.859-1.423-14.534-2.273-23.156-2.412-15.708-.258-27.627 4.118-36.668 10.975 0 0-111.39-45.891-106.208 57.713 1.102 22.04 31.591 166.77 67.955 123.055 13.291-15.986 26.136-29.502 26.136-29.502 6.378 4.238 14.014 6.4 22.023 5.623l.619-.528c-.194 1.985-.109 3.926.247 6.224-9.366 10.467-6.614 12.305-25.343 16.16-18.948 3.905-7.816 10.858-.55 12.675 8.812 2.204 29.196 5.325 42.972-13.957l-.548 2.2c3.675 2.94 3.426 21.13 3.947 34.128.522 12.998 1.392 25.126 4.042 32.277 2.649 7.15 5.775 25.569 30.39 20.294 20.571-4.409 36.3-10.754 37.733-69.776" stroke="#000" stroke-width="25.807"/><path d="M338.527 187.18c-34.714 7.16-37.1-4.593-37.1-4.593C338.079 128.201 353.4 59.165 340.179 42.27c-36.073-46.09-98.516-24.292-99.558-23.726l-.335.06c-6.859-1.424-14.534-2.272-23.16-2.413-15.708-.257-27.623 4.118-36.664 10.974 0 0-111.392-45.889-106.212 57.715 1.102 22.04 31.591 166.77 67.957 123.056 13.291-15.986 26.134-29.502 26.134-29.502 6.378 4.238 14.014 6.4 22.02 5.623l.622-.528c-.194 1.985-.105 3.926.249 6.224-9.369 10.467-6.616 12.305-25.343 16.16-18.95 3.905-7.818 10.858-.55 12.675 8.812 2.204 29.197 5.325 42.971-13.957l-.55 2.2c3.671 2.94 6.249 19.124 5.817 33.795-.432 14.67-.72 24.743 2.172 32.61 2.892 7.868 5.775 25.569 30.394 20.294 20.571-4.409 31.232-15.833 32.715-34.889 1.052-13.548 3.434-11.545 3.584-23.657l1.91-5.734c2.203-18.365.35-24.29 13.024-21.534l3.08.27c9.328.425 21.537-1.5 28.703-4.83 15.43-7.16 24.58-19.116 9.367-15.975z" fill="#336791"/><path d="M209.8 197.707c-.955 34.172.24 68.582 3.584 76.944 3.346 8.363 10.506 24.63 35.127 19.355 20.57-4.41 28.054-12.944 31.302-31.78 2.392-13.86 7.003-52.349 7.595-60.235M180.29 26.401S68.822-19.157 74.004 84.446c1.102 22.04 31.593 166.776 67.958 123.059 13.289-15.988 25.307-28.526 25.307-28.526M240.499 18.086c-3.858 1.21 62.005-24.077 99.437 23.752 13.222 16.896-2.1 85.932-38.752 140.32" fill="none" stroke="#fff" stroke-width="8.602" stroke-linecap="round" stroke-linejoin="round"/><path d="M301.183 182.158s2.388 11.757 37.103 4.591c15.21-3.141 6.057 8.816-9.37 15.98-12.66 5.876-41.043 7.381-41.507-.738-1.193-20.948 14.939-14.584 13.775-19.833-1.053-4.727-8.267-9.367-13.04-20.937-4.166-10.098-57.138-87.54 14.691-76.039 2.631-.544-18.734-68.322-85.956-69.424-67.207-1.103-65.002 82.65-65.002 82.65" fill="none" stroke="#fff" stroke-width="8.602" stroke-linecap="round" stroke-linejoin="bevel"/><path d="M190.987 189.322c-9.37 10.466-6.614 12.304-25.343 16.16-18.95 3.907-7.817 10.858-.55 12.674 8.811 2.205 29.196 5.327 42.97-13.96 4.195-5.872-.024-15.242-5.786-17.63-2.784-1.153-6.507-2.598-11.291 2.756z" fill="none" stroke="#fff" stroke-width="8.602" stroke-linecap="round" stroke-linejoin="round"/><path d="M190.373 189.14c-.944-6.155 2.022-13.477 5.2-22.044 4.778-12.854 15.8-25.71 6.983-66.485-6.572-30.385-50.652-6.324-50.68-2.204-.026 4.119 1.994 20.883-.736 40.405-3.562 25.474 16.21 47.019 38.977 44.815" fill="none" stroke="#fff" stroke-width="8.602" stroke-linecap="round" stroke-linejoin="round"/><path d="M179.885 97.79c-.199 1.407 2.576 5.161 6.194 5.663 3.612.504 6.704-2.43 6.9-3.836.196-1.407-2.575-2.957-6.195-3.461-3.614-.505-6.707.23-6.898 1.633z" fill="#fff" stroke="#fff" stroke-width="2.867"/><path d="M289.906 94.92c.196 1.408-2.576 5.163-6.195 5.664-3.615.504-6.706-2.43-6.904-3.836-.192-1.407 2.58-2.957 6.196-3.46 3.616-.505 6.707.229 6.903 1.633z" fill="#fff" stroke="#fff" stroke-width="1.434"/><path d="M302.835 85.182c.596 11.038-2.377 18.556-2.752 30.306-.555 17.08 8.143 36.627-4.963 56.2" fill="none" stroke="#fff" stroke-width="8.602" stroke-linecap="round" stroke-linejoin="round"/><path d="M42.8 339.36q0 7.5-4.45 11.75t-12.2 4.25H5.55l.05 23.65-5.6.05v-55.6l27.7-.1q7.15 0 11.1 4.25 4 4.25 4 11.75zm-5.65.2q0-11.7-11.2-11.7l-20.4-.05v23.15H24.9q12.25 0 12.25-11.4zM83.569 360.81q0 8.9-4.65 13.9-5.2 5.6-15.15 5.6-4.75 0-8.3-1.3-3.5-1.35-6.15-4.2-4.8-5.35-4.8-14 0-8.7 4.65-13.8 5.15-5.7 14.6-5.7 10 0 15.1 5.55 4.7 5 4.7 13.95zm-4.85 0q0-15.55-14.95-15.55-6.75 0-10.6 4.15-1.85 2-2.85 4.9-.95 2.85-.95 6.5 0 7.15 3.7 11.4 3.75 4.2 10.7 4.2 7.7 0 11.45-4.35 1.8-1.95 2.65-4.75.85-2.8.85-6.5zM119.955 368.96q0 11.25-16.85 11.25-5.15 0-8.7-.8-3.5-.8-5.7-2.6-1.7-1.35-2.7-3.55-1-2.25-1.3-5.55l5.2-.05q0 4.4 2.75 6.5 2.95 2.5 10.45 2.5 11.8 0 11.8-7.05 0-4.1-3.95-5.65-.8-.35-9.55-1.6-8.7-1.3-10.85-2.3-4.65-2.2-4.65-7.95 0-5.6 4.15-8.35 2.05-1.15 5.1-1.75 3.1-.65 7.15-.65 16.2 0 16.2 12.15h-4.95q0-8.55-11.4-8.55-5.8 0-8.65 1.75-2.85 1.7-2.85 5.3 0 3.35 3.85 4.8 2.25.8 10.35 1.8 7.25.8 9.95 2.2 5.15 2.4 5.15 8.15zM140.88 379.16q-1.2.25-2.15.35-.9.1-1.3.1-5.1 0-7.35-1.75-2.25-1.8-2.25-6.25v-25.25h-6.2v-3.75h6.15l.05-12.05h4.75v12.1l8.3-.05v3.8l-8.3-.05v24.55q0 2.75 1.2 3.8 1.25 1.05 4.4 1.05.45.05 1-.05t1.65-.35l.05 3.8zM181.906 377.91q0 16.6-18.65 16.6-9.75 0-13.85-3.2-3.55-2.75-4.35-8.85l4.9-.05q.85 4.45 3.1 6.2 3 2.35 10.05 2.35 7.5 0 10.75-3.4 3.3-3.4 3.3-9.65l-.05-6.5q-4.5 7.05-15.25 7.05-8.95 0-13.85-4.9-2.25-2.4-3.45-5.8-1.15-3.45-1.15-7.85 0-8.8 4.65-13.45 4.9-5.1 14.2-5.1 6.35 0 10.35 2.65 1.35 1 4.5 4.85l.05-6.3h4.75v35.35zm-4.75-18.2q0-6.55-3.65-10.45-3.6-3.95-10.6-3.95-6.95 0-10.8 3.9-3.8 3.85-3.8 10.7 0 14.75 14.95 14.75 3.25 0 5.75-1t4.45-2.95q3.7-3.85 3.7-11zM206.883 346.31q-2.15-.4-4-.4-11.75 0-11.75 15.35l.05 17.75h-4.75l-.05-36.35 4.75-.05v6.55h.25q1.2-3.85 3.8-5.8 2.85-1.9 8.5-1.9h1.9q.8 0 1.3.05v4.8zM246.177 361.81h-33.95q0 6.25 3.45 10.2 4 4.6 11.45 4.6 10.55 0 13.2-9.45h5.15q-1.15 5.4-5.45 9.1-2.45 1.95-5.75 3-3.25 1.1-7.1 1.1-9.65 0-14.95-5.8-4.9-5.2-4.9-14.05 0-8.8 5.1-13.9 5.1-5.15 14.35-5.15 4.95 0 8.65 1.45 3.7 1.4 6.2 4.35 4.55 5.3 4.55 14.55zm-5-3.3q0-5.25-4.05-9.4-4-4.15-10.35-4.15-3.25 0-5.85 1-2.6.95-4.65 2.95-3.15 3.4-4.05 9.6h28.95z" style="line-height:125%;-inkscape-font-specification:Strait" font-weight="400" font-size="50" font-family="Strait" letter-spacing="2.15" word-spacing="0"/><path d="M308.435 363.515q0 19.56-26.34 19.56-15.78 0-23.04-6.72-5.94-5.52-5.94-16.8h7.08q0 18.18 21.9 18.18 10.5 0 15.18-3.78 3.96-3.24 3.96-10.26 0-6.96-5.4-9.78-3.06-1.5-14.94-3.78-14.94-2.7-19.38-5.46-6.42-4.02-6.42-13.56 0-9 5.46-13.32 5.88-4.8 20.16-4.8 25.8 0 25.8 20.46h-7.14q0-15.3-19.14-15.3-9.6 0-14.04 3.06-4.2 3.3-4.2 9.66 0 6.66 5.4 9.42 2.88 1.56 16.92 4.32 13.2 2.4 17.82 5.52 6.3 3.9 6.3 13.38z" style="line-height:125%;-inkscape-font-specification:Strait" font-weight="400" font-size="60" font-family="Strait" letter-spacing="0" word-spacing="0" fill="#336791"/><path d="M376.599 382.895l-4.32 4.68-10.44-8.7q-3.3 2.1-8.04 3.18-4.74 1.08-11.1 1.08-16.26 0-25.68-9.66-9.36-9.72-9.36-25.5 0-16.14 9.3-25.62t25.62-9.48q8.4 0 14.94 2.52 6.54 2.52 11.16 7.68 8.64 9.36 8.64 24.9 0 8.7-2.64 15.36-2.64 6.6-8.16 11.22l10.08 8.34zm-6.06-34.92q0-6.84-1.86-12.18-1.86-5.4-5.76-9.42-7.38-8.22-20.28-8.22-12.72 0-20.46 7.86-7.68 7.86-7.68 21.96 0 13.56 7.74 21.72 7.8 8.1 20.4 8.1 6.18 0 11.16-1.92t8.94-5.7q7.8-8.16 7.8-22.2zM426.228 381.335l-48.3.06v-66.72l6.66-.12v61.2h41.7l-.06 5.58z" style="line-height:125%;-inkscape-font-specification:Strait" font-weight="400" font-size="60" font-family="Strait" letter-spacing="0" word-spacing="0" fill="#336791"/></svg>